# Blender v2.92.0 OBJ File: 'scene_playground.blend'
# www.blender.org
mtllib butterfly_3.mtl
o Butterfly.001
v -3.979328 4.199757 2.464177
v -4.060113 4.275694 2.207188
v -4.059514 4.311493 2.224739
v -4.110694 4.349486 2.174495
v -4.181106 4.430434 2.025334
v -4.135769 4.347130 2.180159
v -4.125209 4.330593 2.252082
v -4.153776 4.329074 2.176129
v -4.153022 4.302707 2.245857
v -4.202556 4.408926 2.020533
v -4.126658 4.244167 2.209710
v -4.111631 4.293532 2.147063
v -4.087925 4.247807 2.200963
v -4.065720 4.224874 2.500134
v -4.086477 4.334234 2.243334
v -4.093237 4.334764 2.162457
v -4.151234 4.433240 2.018587
v -4.014786 4.229661 2.488631
v -4.093626 4.311586 2.151094
v -4.152350 4.366584 1.985908
v -4.130901 4.388093 1.990709
v -4.154164 4.305898 2.164766
v -4.153621 4.266908 2.228306
v -4.067625 4.111222 2.444413
v -4.203018 4.381315 2.006996
v -4.136707 4.291176 2.152726
v -4.016690 4.116009 2.432911
v -4.167043 4.435309 1.948965
v -4.176855 4.443584 1.955731
v -4.130438 4.415702 2.004245
v -4.182223 4.363777 1.992654
v -4.103082 4.141127 2.468868
v -4.201287 4.419086 1.950263
v -4.205121 4.439869 1.901401
v -4.191475 4.410810 1.943496
v -4.167261 4.422283 1.942578
v -4.190948 4.442260 1.958915
v -4.177382 4.412136 1.940313
v -4.201069 4.432112 1.956649
v -4.204769 4.460913 1.911719
v -4.188772 4.456262 1.905061
v -4.195690 4.440755 1.899271
v -4.211541 4.454123 1.910203
v -4.195337 4.461800 1.909589
v -4.188917 4.447546 1.900787
v -4.211688 4.445406 1.905930
v -4.040336 4.128860 2.497658
v -4.006038 4.160019 2.514621
v -4.035373 4.168624 2.526220
v -3.980118 4.152681 2.441097
v -4.021335 4.130646 2.493367
v -4.007690 4.144328 2.496421
v -4.020624 4.173045 2.514154
v -4.053268 4.157579 2.515391
v -4.102294 4.188202 2.491947
v -4.053564 4.140017 2.506781
v -4.014142 4.152760 2.645930
v -4.011597 4.173296 2.787495
v -3.999927 4.173916 2.788234
v -3.984127 4.246470 2.925436
v -3.970757 4.247246 2.926290
v -3.944740 4.134397 2.609216
v -3.934625 4.125522 2.600856
v -3.798699 4.141384 2.775492
v -3.724168 4.173008 2.848525
v -3.713838 4.163943 2.839986
v -4.025833 4.152079 2.645183
v -3.808938 4.146491 2.782738
v -4.518940 4.737523 2.695826
v -4.628158 4.840605 2.923323
v -4.241429 4.332252 3.062617
v -3.894527 4.592595 1.704577
v -3.390681 4.388690 2.210861
v -3.568236 4.669669 1.637522
v -4.624867 4.780062 3.295037
v -4.653373 4.789699 3.468214
v -4.489040 4.572596 3.534581
v -4.650873 4.774385 3.548388
v -4.556255 4.647607 3.598304
v -4.516437 4.602079 3.567749
v -4.640368 4.756082 3.581789
v -4.622418 4.730557 3.600975
v -4.590470 4.688298 3.614220
v -4.321341 4.405073 3.246203
v -4.624660 4.807168 3.114643
v -4.616779 4.785755 3.190335
v -4.155380 4.262950 2.805978
v -4.493404 4.709295 2.669823
v -4.106821 4.235827 2.580418
v -4.093483 4.248782 2.384283
v -4.132339 4.320893 2.231635
v -4.186238 4.406339 2.116014
v -4.436872 4.750276 1.930305
v -4.505927 4.841519 1.902323
v -4.578809 4.921879 1.977861
v -4.638173 4.980741 2.082839
v -4.684519 5.020980 2.202465
v -4.710710 5.037597 2.310415
v -4.708641 5.019119 2.415026
v -4.671277 4.948444 2.570585
v -4.618613 4.872050 2.636797
v -4.574021 4.810674 2.671057
v -4.518595 4.739899 2.677299
v -4.572435 4.799045 2.734537
v -4.599458 4.829053 2.761141
v -4.622956 4.846862 2.838880
v -4.616556 4.845276 2.796188
v -3.171508 4.425143 2.194748
v -3.212292 4.425750 2.183792
v -3.138742 4.415344 2.221138
v -3.259720 4.417387 2.188175
v -3.345351 4.396315 2.207369
v -3.082679 4.391274 2.280082
v -2.938037 4.297680 2.491629
v -2.973582 4.327136 2.427451
v -3.251404 4.094001 2.800887
v -3.453730 4.103237 2.734770
v -2.686204 4.203179 2.730679
v -2.730712 4.230706 2.667987
v -2.767618 4.127581 2.853860
v -2.866601 4.268864 2.563233
v -2.884135 4.105988 2.866607
v -2.688456 4.168279 2.796046
v -2.678761 4.185766 2.765353
v -2.718081 4.143922 2.834917
v -2.832386 4.112460 2.866834
v -3.706445 4.132309 2.619069
v -4.028566 4.229908 2.357264
v -3.896877 4.174788 2.493037
v -4.078534 4.375025 2.071187
v -4.073323 4.303734 2.207072
v -3.830112 4.645033 1.621044
v -3.699958 4.666362 1.612076
v -3.348529 4.641558 1.743464
v -3.443110 4.660054 1.685782
v -3.289058 4.606390 1.824185
v -3.240829 4.532557 1.975222
v -3.263404 4.478039 2.072749
v -3.295421 4.438935 2.138893
v -3.356719 4.402096 2.193717
vt 0.837654 0.531119
vt 0.817092 0.340223
vt 0.838671 0.339708
vt 0.884241 0.277717
vt 0.899359 0.128103
vt 0.900154 0.279541
vt 0.895113 0.340815
vt 0.916484 0.279793
vt 0.916494 0.341987
vt 0.915982 0.129024
vt 0.773564 0.333719
vt 0.801855 0.277088
vt 0.795649 0.338281
vt 0.892410 0.530952
vt 0.873049 0.337090
vt 0.834554 0.277540
vt 0.852985 0.123299
vt 0.850188 0.275658
vt 0.865574 0.544795
vt 0.860475 0.336653
vt 0.818260 0.278005
vt 0.802429 0.127296
vt 0.818954 0.128745
vt 0.932759 0.278687
vt 0.937998 0.340774
vt 0.968504 0.543596
vt 0.959325 0.336913
vt 0.932639 0.128155
vt 0.948623 0.276957
vt 0.789615 0.529119
vt 0.828511 0.070624
vt 0.837096 0.067307
vt 0.835406 0.127369
vt 0.950586 0.124743
vt 0.940118 0.530115
vt 0.785954 0.274763
vt 0.925353 0.070697
vt 0.927533 0.023569
vt 0.934399 0.068431
vt 0.819120 0.071622
vt 0.897560 0.068432
vt 0.906606 0.070695
vt 0.784842 0.122830
vt 0.809730 0.070493
vt 0.915980 0.071591
vt 0.958482 0.894173
vt 0.958482 0.907019
vt 0.949380 0.907019
vt 0.910279 0.024312
vt 0.915980 0.027269
vt 0.824438 0.025864
vt 0.830052 0.023835
vt 0.819275 0.028599
vt 0.921680 0.024312
vt 0.904426 0.023569
vt 0.801166 0.067047
vt 0.814132 0.025788
vt 0.938963 0.690746
vt 0.961225 0.678249
vt 0.961084 0.703735
vt 0.789970 0.587408
vt 0.762071 0.541255
vt 0.813323 0.526556
vt 0.801223 0.577853
vt 0.813079 0.571968
vt 0.835835 0.587408
vt 0.824378 0.579196
vt 0.893359 0.586584
vt 0.865687 0.543459
vt 0.916189 0.572325
vt 0.904799 0.579019
vt 0.916677 0.527038
vt 0.927954 0.578741
vt 0.895808 0.627926
vt 0.879713 0.715626
vt 0.847654 0.620374
vt 0.919428 0.817601
vt 0.885770 0.819127
vt 0.886206 0.930828
vt 0.847654 0.932603
vt 0.799539 0.613365
vt 0.797049 0.696128
vt 0.750754 0.696395
vt 0.807662 0.854641
vt 0.824354 0.932603
vt 0.777074 0.932288
vt 0.881365 0.124802
vt 0.947494 0.900596
vt 0.949380 0.894173
vt 0.960367 0.900596
vt 0.808532 0.023676
vt 0.942677 0.703735
vt 0.942821 0.677842
vt 0.965273 0.691037
vt 0.939724 0.587408
vt 0.913433 0.714087
vt 0.847048 0.605571
vt 0.847048 0.853658
vt 0.541540 0.468377
vt 0.689783 0.583096
vt 0.223961 0.737469
vt 0.392960 0.029410
vt 0.508578 0.457687
vt 0.649505 0.082572
vt 0.708993 0.804247
vt 0.754801 0.901707
vt 0.557309 0.971563
vt 0.756748 0.949739
vt 0.643769 0.996903
vt 0.593000 0.986160
vt 0.745947 0.971504
vt 0.725121 0.986216
vt 0.686748 1.000000
vt 0.333498 0.831570
vt 0.697455 0.697256
vt 0.692519 0.743626
vt 0.102380 0.601131
vt 0.508578 0.457687
vt 0.028632 0.476343
vt 0.000000 0.362449
vt 0.038131 0.264675
vt 0.097036 0.186080
vt 0.392960 0.029410
vt 0.475943 0.000000
vt 0.570097 0.031299
vt 0.649505 0.082572
vt 0.713856 0.144952
vt 0.752745 0.204141
vt 0.756748 0.266592
vt 0.720629 0.365817
vt 0.660150 0.414868
vt 0.607577 0.443466
vt 0.539957 0.457449
vt 0.609601 0.481423
vt 0.644423 0.492196
vt 0.678119 0.533960
vt 0.667594 0.509818
vt 0.667594 0.509818
vt 0.644423 0.492196
vt 0.678119 0.533960
vt 0.609601 0.481423
vt 0.541540 0.468377
vt 0.689783 0.583096
vt 0.692519 0.743626
vt 0.697455 0.697256
vt 0.333498 0.831570
vt 0.223961 0.737469
vt 0.756748 0.949739
vt 0.754801 0.901707
vt 0.643769 0.996903
vt 0.708993 0.804247
vt 0.557309 0.971563
vt 0.725121 0.986216
vt 0.745947 0.971504
vt 0.686748 1.000000
vt 0.593000 0.986160
vt 0.102380 0.601131
vt 0.000000 0.362449
vt 0.028632 0.476343
vt 0.097036 0.186080
vt 0.038131 0.264675
vt 0.475943 0.000000
vt 0.570097 0.031299
vt 0.752745 0.204141
vt 0.713856 0.144952
vt 0.756748 0.266592
vt 0.720629 0.365817
vt 0.660150 0.414868
vt 0.607577 0.443466
vt 0.539957 0.457449
vn 0.9325 0.2751 0.2342
vn 0.8459 -0.1916 -0.4977
vn 0.8573 0.4878 -0.1646
vn 0.3571 0.9067 0.2246
vn -0.3822 0.8427 0.3792
vn -0.3818 0.8372 0.3915
vn -0.3894 0.8502 0.3542
vn -0.9124 0.3052 0.2728
vn -0.9172 0.3210 0.2361
vn -0.9136 0.3088 0.2647
vn -0.4169 -0.7899 -0.4498
vn 0.3295 -0.7421 -0.5837
vn 0.3182 -0.7208 -0.6158
vn -0.2680 0.6239 0.7341
vn 0.3456 0.9193 0.1882
vn 0.8715 0.4728 -0.1301
vn 0.3534 0.9133 0.2023
vn 0.4407 0.6845 0.5807
vn 0.8600 -0.2101 -0.4650
vn 0.3222 -0.7236 -0.6105
vn 0.8470 -0.1929 -0.4954
vn -0.9238 -0.3777 -0.0621
vn -0.9285 -0.3583 -0.0969
vn -0.2912 -0.9561 -0.0318
vn -0.9247 -0.3733 -0.0747
vn -0.4094 -0.8116 -0.4168
vn 0.4143 -0.8898 -0.1912
vn 0.8129 0.5222 -0.2580
vn 0.3274 0.9371 0.1210
vn 0.8607 0.4834 -0.1598
vn -0.4109 -0.7999 -0.4373
vn -0.7824 -0.5419 0.3069
vn -0.9302 -0.3443 -0.1272
vn -0.4576 -0.3445 -0.8197
vn -0.4248 -0.7490 -0.5085
vn 0.7939 -0.1326 -0.5934
vn -0.3923 0.8613 0.3229
vn 0.2873 -0.6561 -0.6979
vn -0.9187 0.3275 0.2206
vn -0.4351 0.8783 -0.1980
vn 0.4823 0.6151 -0.6237
vn 0.0840 -0.2777 -0.9570
vn -0.8338 0.4763 -0.2792
vn 0.1122 0.9326 -0.3429
vn 0.4686 0.1178 -0.8755
vn -0.8420 -0.0337 -0.5385
vn -0.0123 -0.8321 0.5545
vn 0.8255 0.2080 0.5247
vn -0.0340 0.4367 0.8990
vn 0.9210 -0.3818 -0.0778
vn 0.3840 -0.8120 0.4396
vn 0.7347 -0.5715 0.3656
vn 0.4403 0.6320 0.6377
vn -0.4481 -0.2277 0.8645
vn -0.7715 0.1102 0.6266
vn -0.3062 -0.6089 0.7318
vn -0.0247 0.4383 0.8985
vn -0.0611 0.9981 -0.0115
vn 0.4404 0.6320 0.6376
vn -0.0329 0.9577 -0.2859
vn -0.0293 0.9433 -0.3306
vn -0.0215 0.8848 -0.4654
vn -0.0216 0.8848 -0.4654
vn 0.8255 0.2080 0.5248
vn 0.4986 0.8228 -0.2727
vn 0.4921 0.8244 -0.2797
vn 0.1874 0.9004 -0.3927
vn 0.2136 0.7980 -0.5635
vn 0.2229 0.7909 -0.5699
vn -0.0590 0.9982 0.0142
vn 0.4403 0.6320 0.6378
vn 0.1897 0.9085 -0.3723
vn 0.7798 0.6190 0.0939
vn 0.7797 0.6190 0.0940
vn -0.1119 0.8782 0.4650
vn 0.7797 0.6191 0.0938
vn 0.7798 0.6190 0.0937
vn 0.7798 0.6190 0.0940
vn 0.7798 0.6189 0.0938
vn 0.7798 0.6189 0.0939
vn 0.7797 0.6190 0.0939
vn -0.1118 0.8782 0.4650
vn -0.1119 0.8782 0.4651
usemtl Butterfly.001
s 1
f 1/1/1 2/2/2 3/3/3
f 4/4/4 5/5/5 6/6/6
f 7/7/7 8/8/8 9/9/9
f 6/6/6 10/10/10 8/8/8
f 11/11/11 12/12/12 13/13/13
f 14/14/14 15/15/15 7/7/7
f 16/16/16 17/17/17 4/18/4
f 2/2/2 16/16/16 3/3/3
f 18/19/18 3/3/3 15/20/15
f 19/21/19 20/22/20 21/23/21
f 9/9/9 22/24/22 23/25/23
f 24/26/24 23/25/23 11/27/11
f 8/8/8 25/28/25 22/24/22
f 11/27/11 22/24/22 26/29/26
f 2/2/2 27/30/27 13/13/13
f 17/17/17 28/31/28 29/32/29
f 3/3/3 4/18/4 15/20/15
f 9/9/9 14/14/14 7/7/7
f 16/16/16 21/23/21 30/33/30
f 27/30/27 11/11/11 13/13/13
f 26/29/26 25/28/25 31/34/31
f 13/13/13 19/21/19 2/2/2
f 32/35/32 9/9/9 23/25/23
f 15/15/15 6/6/6 7/7/7
f 26/36/26 20/22/20 12/12/12
f 33/37/33 34/38/34 35/39/35
f 20/22/20 36/40/36 21/23/21
f 10/10/10 33/37/33 25/28/25
f 5/5/5 29/41/29 37/42/37
f 30/33/30 36/40/36 28/31/28
f 31/43/31 38/44/38 20/22/20
f 25/28/25 35/39/35 31/34/31
f 10/10/10 37/42/37 39/45/39
f 40/46/40 41/47/41 42/48/42
f 39/45/39 40/49/40 43/50/43
f 29/32/29 41/51/41 44/52/44
f 38/44/38 45/53/45 36/40/36
f 39/45/39 46/54/46 33/37/33
f 37/42/37 44/55/44 40/49/40
f 28/31/28 45/53/45 41/51/41
f 35/56/35 42/57/42 38/44/38
f 47/58/47 48/59/48 49/60/49
f 27/30/27 47/61/47 24/62/24
f 50/63/50 51/64/51 27/30/27
f 1/1/1 52/65/52 50/63/50
f 1/1/1 53/66/53 48/67/48
f 14/14/14 53/68/53 18/69/18
f 14/14/14 54/70/54 49/71/49
f 55/72/55 56/73/56 54/70/54
f 24/26/24 56/73/56 32/35/32
f 49/74/57 57/75/58 53/76/59
f 57/75/58 58/77/60 59/78/61
f 59/78/61 60/79/62 61/80/63
f 48/81/64 62/82/65 63/83/66
f 62/82/65 64/84/67 63/83/66
f 64/84/67 65/85/68 66/86/69
f 1/1/1 50/63/50 2/2/2
f 4/4/4 17/87/17 5/5/5
f 7/7/7 6/6/6 8/8/8
f 6/6/6 5/5/5 10/10/10
f 11/11/11 26/36/26 12/12/12
f 14/14/14 18/69/18 15/15/15
f 16/16/16 30/33/30 17/17/17
f 2/2/2 19/21/19 16/16/16
f 18/19/18 1/1/1 3/3/3
f 19/21/19 12/12/12 20/22/20
f 9/9/9 8/8/8 22/24/22
f 24/26/24 32/35/32 23/25/23
f 8/8/8 10/10/10 25/28/25
f 11/27/11 23/25/23 22/24/22
f 2/2/2 50/63/50 27/30/27
f 17/17/17 30/33/30 28/31/28
f 3/3/3 16/16/16 4/18/4
f 9/9/9 55/72/55 14/14/14
f 16/16/16 19/21/19 21/23/21
f 27/30/27 24/62/24 11/11/11
f 26/29/26 22/24/22 25/28/25
f 13/13/13 12/12/12 19/21/19
f 32/35/32 55/72/55 9/9/9
f 15/15/15 4/4/4 6/6/6
f 26/36/26 31/43/31 20/22/20
f 33/37/33 46/54/46 34/38/34
f 20/22/20 38/44/38 36/40/36
f 10/10/10 39/45/39 33/37/33
f 5/5/5 17/87/17 29/41/29
f 30/33/30 21/23/21 36/40/36
f 31/43/31 35/56/35 38/44/38
f 25/28/25 33/37/33 35/39/35
f 10/10/10 5/5/5 37/42/37
f 42/48/42 34/88/34 46/89/46
f 46/54/46 43/50/43 40/49/40
f 40/46/40 44/90/44 41/47/41
f 41/51/41 45/53/45 42/57/42
f 42/48/42 46/89/46 40/46/40
f 39/45/39 37/42/37 40/49/40
f 29/32/29 28/31/28 41/51/41
f 38/44/38 42/57/42 45/53/45
f 39/45/39 43/50/43 46/54/46
f 37/42/37 29/41/29 44/55/44
f 28/31/28 36/40/36 45/53/45
f 35/56/35 34/91/34 42/57/42
f 56/92/56 47/58/47 49/60/49
f 47/58/47 51/93/51 48/59/48
f 51/64/51 52/65/52 48/67/48
f 48/59/48 53/94/53 49/60/49
f 49/71/49 54/70/54 56/73/56
f 27/30/27 51/64/51 47/61/47
f 50/63/50 52/65/52 51/64/51
f 1/1/1 48/67/48 52/65/52
f 1/1/1 18/19/18 53/66/53
f 14/14/14 49/71/49 53/68/53
f 14/14/14 55/72/55 54/70/54
f 55/72/55 32/35/32 56/73/56
f 24/26/24 47/95/47 56/73/56
f 49/74/57 67/96/70 57/75/58
f 57/75/58 67/96/70 58/77/60
f 59/78/61 58/77/60 60/79/62
f 48/81/64 53/97/71 62/82/65
f 62/82/65 68/98/72 64/84/67
f 64/84/67 68/98/72 65/85/68
f 69/99/73 70/100/73 71/101/74
f 72/102/75 73/103/75 74/104/75
f 75/105/73 76/106/73 77/107/73
f 76/106/73 78/108/73 79/109/73
f 77/107/73 76/106/73 80/110/73
f 78/108/73 81/111/73 82/112/73
f 82/112/73 83/113/73 79/109/73
f 79/109/73 80/110/73 76/106/73
f 77/107/73 84/114/73 75/105/73
f 84/114/73 71/101/74 85/115/73
f 86/116/73 84/114/73 85/115/73
f 71/101/74 87/117/76 88/118/73
f 87/117/76 89/119/77 88/118/73
f 71/101/74 88/118/73 69/99/73
f 89/119/77 90/120/73 88/118/73
f 90/120/73 91/121/73 88/118/73
f 91/121/73 92/122/73 88/118/73
f 92/122/73 93/123/73 88/118/73
f 93/123/73 94/124/73 95/125/73
f 95/125/73 96/126/73 93/123/73
f 96/126/73 97/127/73 88/118/73
f 93/123/73 96/126/73 88/118/73
f 97/127/73 98/128/73 99/129/73
f 99/129/73 100/130/73 101/131/73
f 101/131/73 102/132/78 103/133/79
f 101/131/73 103/133/79 88/118/73
f 97/127/73 99/129/73 88/118/73
f 99/129/73 101/131/73 88/118/73
f 84/114/73 86/116/73 75/105/73
f 82/112/73 79/109/73 78/108/73
f 70/100/73 85/115/73 71/101/74
f 69/99/73 104/134/73 70/100/73
f 104/134/73 105/135/80 106/136/73
f 106/136/73 105/135/80 107/137/81
f 106/136/73 70/100/73 104/134/73
f 108/138/75 109/139/75 110/140/75
f 109/139/75 111/141/75 110/140/75
f 111/141/75 112/142/75 113/143/75
f 113/143/75 110/140/75 111/141/75
f 114/144/75 115/145/75 116/146/75
f 115/145/75 113/143/75 117/147/75
f 117/147/75 113/143/75 112/142/75
f 118/148/75 119/149/75 120/150/75
f 119/149/75 121/151/75 122/152/75
f 118/148/75 120/150/75 123/153/75
f 124/154/82 118/148/75 123/153/75
f 123/153/75 120/150/75 125/155/83
f 121/151/75 114/144/75 116/146/75
f 119/149/75 126/156/75 120/150/75
f 116/146/75 122/152/75 121/151/75
f 122/152/75 126/156/75 119/149/75
f 127/157/75 117/147/75 73/103/75
f 117/147/75 116/146/75 115/145/75
f 73/103/75 117/147/75 112/142/75
f 128/158/75 129/159/75 73/103/75
f 129/159/75 127/157/75 73/103/75
f 130/160/75 131/161/75 73/103/75
f 131/161/75 128/158/75 73/103/75
f 132/162/75 72/102/75 133/163/75
f 72/102/75 130/160/75 73/103/75
f 74/104/75 133/163/75 72/102/75
f 134/164/75 135/165/75 136/166/75
f 135/165/75 74/104/75 73/103/75
f 137/167/75 136/166/75 138/168/75
f 73/103/75 136/166/75 135/165/75
f 139/169/83 138/168/75 140/170/75
f 73/103/75 138/168/75 136/166/75
f 73/103/75 140/170/75 138/168/75
