# Blender v2.92.0 OBJ File: 'scene_playground.blend'
# www.blender.org
mtllib butterfly_2.mtl
o Butterfly.002
v -5.030536 2.427678 2.718690
v -5.151113 2.301997 2.499597
v -5.180494 2.326921 2.509870
v -5.242067 2.286194 2.476145
v -5.355707 2.213080 2.351646
v -5.252625 2.267723 2.490766
v -5.229108 2.295838 2.555684
v -5.246640 2.243251 2.496401
v -5.219865 2.258039 2.564388
v -5.348577 2.183928 2.358360
v -5.158177 2.235666 2.530883
v -5.196145 2.247238 2.460089
v -5.141869 2.264198 2.508301
v -5.094465 2.386803 2.778936
v -5.212801 2.324370 2.533101
v -5.221151 2.287846 2.461105
v -5.343129 2.235085 2.334230
v -5.073020 2.424323 2.749240
v -5.202129 2.271709 2.454454
v -5.288424 2.188678 2.315103
v -5.295553 2.217830 2.308390
v -5.227619 2.227115 2.489750
v -5.190484 2.233116 2.554115
v -5.001189 2.307676 2.746323
v -5.325917 2.164706 2.350437
v -5.206703 2.228766 2.474709
v -4.979744 2.345197 2.716628
v -5.356832 2.196661 2.275601
v -5.368587 2.195732 2.284054
v -5.318213 2.237053 2.316312
v -5.301001 2.166673 2.332520
v -5.043673 2.304322 2.776874
v -5.360467 2.162527 2.291701
v -5.382902 2.150726 2.244888
v -5.348711 2.163455 2.283248
v -5.346140 2.187592 2.271863
v -5.374522 2.185351 2.292272
v -5.342777 2.173837 2.275030
v -5.371158 2.171596 2.295439
v -5.400174 2.165377 2.250928
v -5.388336 2.172946 2.239772
v -5.378931 2.157673 2.239390
v -5.397923 2.156173 2.253046
v -5.396203 2.172325 2.245429
v -5.381182 2.166877 2.237270
v -5.390769 2.150104 2.250546
v -4.999356 2.358351 2.782649
v -5.007481 2.406993 2.780962
v -5.029287 2.392913 2.800845
v -4.991900 2.394902 2.705181
v -4.991356 2.372348 2.771571
v -4.995891 2.390891 2.767301
v -5.026153 2.401867 2.783737
v -5.029619 2.369327 2.799085
v -5.082310 2.337096 2.790383
v -5.015205 2.357099 2.794046
v -4.998249 2.448291 2.905739
v -5.006783 2.515554 3.031722
v -5.001276 2.525232 3.028095
v -5.047771 2.626709 3.137085
v -5.041519 2.637832 3.132927
v -4.948874 2.478970 2.849858
v -4.936536 2.479217 2.839925
v -4.870722 2.660896 2.948950
v -4.855506 2.762940 2.984226
v -4.842904 2.763192 2.974081
v -5.003715 2.438565 2.909376
v -4.879959 2.658263 2.958498
v -5.755547 2.362550 3.041417
v -5.887479 2.416927 3.273680
v -5.245923 2.522100 3.342449
v -5.364824 2.390939 1.927863
v -4.903671 2.880132 2.243757
v -5.266816 2.656721 1.736406
v -5.813628 2.534575 3.623755
v -5.827055 2.584624 3.791714
v -5.553115 2.631578 3.827705
v -5.808276 2.610284 3.866932
v -5.648388 2.641006 3.898693
v -5.590620 2.637688 3.863426
v -5.785382 2.622473 3.896735
v -5.753257 2.631363 3.911926
v -5.699936 2.640599 3.919245
v -5.339291 2.567285 3.528549
v -5.846593 2.477765 3.453571
v -5.820072 2.502864 3.523689
v -5.156410 2.454952 3.086423
v -5.719680 2.358402 3.012756
v -5.120571 2.391491 2.865834
v -5.135534 2.331802 2.678677
v -5.225585 2.277545 2.540988
v -5.332757 2.232573 2.440659
v -5.766157 2.134339 2.306075
v -5.881287 2.114579 2.290862
v -5.983406 2.126832 2.373912
v -6.058563 2.150504 2.482540
v -6.110287 2.180854 2.602879
v -6.132068 2.210718 2.708940
v -6.109464 2.244008 2.807276
v -6.021250 2.298946 2.947952
v -5.925165 2.328155 3.001878
v -5.847831 2.346016 3.026972
v -5.758416 2.356766 3.023886
v -5.833589 2.366270 3.086591
v -5.871711 2.370371 3.116060
v -5.894782 2.391143 3.193190
v -5.892469 2.378705 3.151886
v -4.823141 3.062398 2.144163
v -4.845216 3.026679 2.148701
v -4.796472 3.093367 2.158153
v -4.862186 2.987354 2.171152
v -4.887097 2.917809 2.222999
v -4.743834 3.148138 2.195920
v -4.577813 3.297125 2.352995
v -4.624805 3.258937 2.302169
v -4.547544 3.073503 2.782414
v -4.663031 2.894783 2.793136
v -4.354433 3.539825 2.496844
v -4.404297 3.494291 2.450921
v -4.324807 3.487262 2.651364
v -4.512520 3.366460 2.397605
v -4.365494 3.390905 2.708504
v -4.322135 3.546376 2.563251
v -4.333804 3.550566 2.528782
v -4.314379 3.526480 2.613509
v -4.344432 3.434461 2.689030
v -4.824103 2.667276 2.773317
v -5.087496 2.362516 2.633405
v -4.965214 2.490821 2.719427
v -5.253057 2.283530 2.365550
v -5.181913 2.305467 2.499832
v -5.381188 2.434327 1.819575
v -5.333061 2.542642 1.761033
v -5.124061 2.855205 1.759004
v -5.191651 2.768200 1.737166
v -5.058980 2.915654 1.817311
v -4.962727 2.975732 1.950411
v -4.922318 2.969343 2.056805
v -4.901674 2.950958 2.135323
v -4.898634 2.906483 2.213636
vt 0.837654 0.531119
vt 0.817092 0.340223
vt 0.838671 0.339708
vt 0.884241 0.277717
vt 0.899359 0.128103
vt 0.900154 0.279541
vt 0.895113 0.340815
vt 0.916484 0.279793
vt 0.916494 0.341987
vt 0.915982 0.129024
vt 0.773564 0.333719
vt 0.801855 0.277088
vt 0.795649 0.338281
vt 0.892410 0.530952
vt 0.873049 0.337090
vt 0.834554 0.277540
vt 0.852985 0.123299
vt 0.850188 0.275658
vt 0.865574 0.544795
vt 0.860475 0.336653
vt 0.818260 0.278005
vt 0.802429 0.127296
vt 0.818954 0.128745
vt 0.932759 0.278687
vt 0.937998 0.340774
vt 0.968504 0.543596
vt 0.959325 0.336913
vt 0.932639 0.128155
vt 0.948623 0.276957
vt 0.789615 0.529119
vt 0.828511 0.070624
vt 0.837096 0.067307
vt 0.835406 0.127369
vt 0.950586 0.124743
vt 0.940118 0.530115
vt 0.785954 0.274763
vt 0.925353 0.070697
vt 0.927533 0.023569
vt 0.934399 0.068431
vt 0.819120 0.071622
vt 0.897560 0.068432
vt 0.906606 0.070695
vt 0.784842 0.122830
vt 0.809730 0.070493
vt 0.915980 0.071591
vt 0.958482 0.894173
vt 0.958482 0.907019
vt 0.949380 0.907019
vt 0.910279 0.024312
vt 0.915980 0.027269
vt 0.824438 0.025864
vt 0.830052 0.023835
vt 0.819275 0.028599
vt 0.921680 0.024312
vt 0.904426 0.023569
vt 0.801166 0.067047
vt 0.814132 0.025788
vt 0.938963 0.690746
vt 0.961225 0.678249
vt 0.961084 0.703735
vt 0.789970 0.587408
vt 0.762071 0.541255
vt 0.813323 0.526556
vt 0.801223 0.577853
vt 0.813079 0.571968
vt 0.835835 0.587408
vt 0.824378 0.579196
vt 0.893359 0.586584
vt 0.865687 0.543459
vt 0.916189 0.572325
vt 0.904799 0.579019
vt 0.916677 0.527038
vt 0.927954 0.578741
vt 0.895808 0.627926
vt 0.879713 0.715626
vt 0.847654 0.620374
vt 0.919428 0.817601
vt 0.885770 0.819127
vt 0.886206 0.930828
vt 0.847654 0.932603
vt 0.799539 0.613365
vt 0.797049 0.696128
vt 0.750754 0.696395
vt 0.807662 0.854641
vt 0.824354 0.932603
vt 0.777074 0.932288
vt 0.881365 0.124802
vt 0.947494 0.900596
vt 0.949380 0.894173
vt 0.960367 0.900596
vt 0.808532 0.023676
vt 0.942677 0.703735
vt 0.942821 0.677842
vt 0.965273 0.691037
vt 0.939724 0.587408
vt 0.913433 0.714087
vt 0.847048 0.605571
vt 0.847048 0.853658
vt 0.541540 0.468377
vt 0.689783 0.583096
vt 0.223961 0.737469
vt 0.392960 0.029410
vt 0.508578 0.457687
vt 0.649505 0.082572
vt 0.708993 0.804247
vt 0.754801 0.901707
vt 0.557309 0.971563
vt 0.756748 0.949739
vt 0.643769 0.996903
vt 0.593000 0.986160
vt 0.745947 0.971504
vt 0.725121 0.986216
vt 0.686748 1.000000
vt 0.333498 0.831570
vt 0.697455 0.697256
vt 0.692519 0.743626
vt 0.102380 0.601131
vt 0.508578 0.457687
vt 0.028632 0.476343
vt 0.000000 0.362449
vt 0.038131 0.264675
vt 0.097036 0.186080
vt 0.392960 0.029410
vt 0.475943 0.000000
vt 0.570097 0.031299
vt 0.649505 0.082572
vt 0.713856 0.144952
vt 0.752745 0.204141
vt 0.756748 0.266592
vt 0.720629 0.365817
vt 0.660150 0.414868
vt 0.607577 0.443466
vt 0.539957 0.457449
vt 0.609601 0.481423
vt 0.644423 0.492196
vt 0.678119 0.533960
vt 0.667594 0.509818
vt 0.667594 0.509818
vt 0.644423 0.492196
vt 0.678119 0.533960
vt 0.609601 0.481423
vt 0.541540 0.468377
vt 0.689783 0.583096
vt 0.692519 0.743626
vt 0.697455 0.697256
vt 0.333498 0.831570
vt 0.223961 0.737469
vt 0.756748 0.949739
vt 0.754801 0.901707
vt 0.643769 0.996903
vt 0.708993 0.804247
vt 0.557309 0.971563
vt 0.725121 0.986216
vt 0.745947 0.971504
vt 0.686748 1.000000
vt 0.593000 0.986160
vt 0.102380 0.601131
vt 0.000000 0.362449
vt 0.028632 0.476343
vt 0.097036 0.186080
vt 0.038131 0.264675
vt 0.475943 0.000000
vt 0.570097 0.031299
vt 0.752745 0.204141
vt 0.713856 0.144952
vt 0.756748 0.266592
vt 0.720629 0.365817
vt 0.660150 0.414868
vt 0.607577 0.443466
vt 0.539957 0.457449
vn 0.2565 0.9525 -0.1644
vn 0.5715 0.3702 -0.7324
vn 0.0139 0.8432 -0.5374
vn -0.5805 0.8117 -0.0652
vn -0.8971 0.2650 0.3536
vn -0.8916 0.2674 0.3656
vn -0.9086 0.2534 0.3320
vn -0.7152 -0.4537 0.5316
vn -0.7332 -0.4639 0.4972
vn -0.7193 -0.4561 0.5240
vn 0.4374 -0.8885 -0.1386
vn 0.7727 -0.3362 -0.5384
vn 0.7469 -0.3471 -0.5672
vn -0.6317 0.3845 0.6731
vn -0.5992 0.7948 -0.0966
vn 0.0359 0.8603 -0.5084
vn -0.5893 0.8034 -0.0855
vn -0.3279 0.9062 0.2669
vn 0.5964 0.3849 -0.7044
vn 0.7516 -0.3432 -0.5633
vn 0.5733 0.3713 -0.7304
vn -0.1547 -0.9292 0.3356
vn -0.1757 -0.9369 0.3022
vn 0.6672 -0.7096 0.2265
vn -0.1596 -0.9326 0.3236
vn 0.4616 -0.8805 -0.1076
vn 0.9643 -0.1899 -0.1848
vn -0.0434 0.7892 -0.6127
vn -0.6274 0.7632 -0.1546
vn 0.0196 0.8456 -0.5335
vn 0.4498 -0.8839 -0.1277
vn 0.0787 -0.7561 0.6497
vn -0.1901 -0.9431 0.2728
vn 0.0150 -0.8452 -0.5343
vn 0.3951 -0.8974 -0.1961
vn 0.4890 0.3214 -0.8109
vn -0.9213 0.2443 0.3024
vn 0.6711 -0.3712 -0.6417
vn -0.7404 -0.4680 0.4824
vn -0.9864 0.0164 -0.1637
vn -0.3129 0.4350 -0.8443
vn 0.2286 -0.4442 -0.8663
vn -0.8514 -0.5235 -0.0310
vn -0.7596 0.4126 -0.5028
vn 0.0921 0.0815 -0.9924
vn -0.4332 -0.8818 -0.1861
vn 0.7364 -0.2029 0.6454
vn 0.2748 0.9494 0.1519
vn -0.3422 0.5388 0.7698
vn 0.7959 0.4987 -0.3434
vn 0.9165 0.0707 0.3937
vn 0.8867 0.4332 0.1613
vn -0.2800 0.9023 0.3278
vn 0.0120 -0.1240 0.9922
vn -0.4565 -0.3021 0.8369
vn 0.4039 -0.2528 0.8792
vn -0.3388 0.5466 0.7658
vn -0.8865 0.4391 -0.1460
vn -0.2799 0.9024 0.3277
vn -0.8525 0.3342 -0.4020
vn -0.8408 0.3125 -0.4421
vn -0.7940 0.2373 -0.5597
vn -0.7941 0.2372 -0.5596
vn -0.4631 0.6867 -0.5603
vn -0.4682 0.6797 -0.5647
vn -0.6960 0.4359 -0.5706
vn -0.6043 0.3393 -0.7209
vn -0.5937 0.3406 -0.7290
vn -0.2799 0.9023 0.3278
vn -0.8841 0.4508 -0.1231
vn -0.7007 0.4496 -0.5539
vn -0.1241 0.9482 -0.2925
vn -0.1242 0.9482 -0.2923
vn -0.7839 0.5263 0.3293
vn -0.1241 0.9482 -0.2924
vn -0.1243 0.9481 -0.2926
vn -0.1241 0.9481 -0.2927
vn -0.7840 0.5263 0.3293
vn -0.7839 0.5264 0.3293
vn -0.7840 0.5262 0.3293
usemtl Butterfly.002
s 1
f 1/1/1 2/2/2 3/3/3
f 4/4/4 5/5/5 6/6/6
f 7/7/7 8/8/8 9/9/9
f 6/6/6 10/10/10 8/8/8
f 11/11/11 12/12/12 13/13/13
f 14/14/14 15/15/15 7/7/7
f 16/16/16 17/17/17 4/18/4
f 2/2/2 16/16/16 3/3/3
f 18/19/18 3/3/3 15/20/15
f 19/21/19 20/22/20 21/23/21
f 9/9/9 22/24/22 23/25/23
f 24/26/24 23/25/23 11/27/11
f 8/8/8 25/28/25 22/24/22
f 11/27/11 22/24/22 26/29/26
f 2/2/2 27/30/27 13/13/13
f 17/17/17 28/31/28 29/32/29
f 3/3/3 4/18/4 15/20/15
f 9/9/9 14/14/14 7/7/7
f 16/16/16 21/23/21 30/33/30
f 27/30/27 11/11/11 13/13/13
f 26/29/26 25/28/25 31/34/31
f 13/13/13 19/21/19 2/2/2
f 32/35/32 9/9/9 23/25/23
f 15/15/15 6/6/6 7/7/7
f 26/36/26 20/22/20 12/12/12
f 33/37/33 34/38/34 35/39/35
f 20/22/20 36/40/36 21/23/21
f 10/10/10 33/37/33 25/28/25
f 5/5/5 29/41/29 37/42/37
f 30/33/30 36/40/36 28/31/28
f 31/43/31 38/44/38 20/22/20
f 25/28/25 35/39/35 31/34/31
f 10/10/10 37/42/37 39/45/39
f 40/46/40 41/47/41 42/48/42
f 39/45/39 40/49/40 43/50/43
f 29/32/29 41/51/41 44/52/44
f 38/44/38 45/53/45 36/40/36
f 39/45/39 46/54/46 33/37/33
f 37/42/37 44/55/44 40/49/40
f 28/31/28 45/53/45 41/51/41
f 35/56/35 42/57/42 38/44/38
f 47/58/47 48/59/48 49/60/49
f 27/30/27 47/61/47 24/62/24
f 50/63/50 51/64/51 27/30/27
f 1/1/1 52/65/52 50/63/50
f 1/1/1 53/66/53 48/67/48
f 14/14/14 53/68/53 18/69/18
f 14/14/14 54/70/54 49/71/49
f 55/72/55 56/73/56 54/70/54
f 24/26/24 56/73/56 32/35/32
f 49/74/57 57/75/58 53/76/59
f 57/75/58 58/77/60 59/78/61
f 59/78/61 60/79/62 61/80/63
f 48/81/48 62/82/64 63/83/65
f 62/82/64 64/84/66 63/83/65
f 64/84/66 65/85/67 66/86/68
f 1/1/1 50/63/50 2/2/2
f 4/4/4 17/87/17 5/5/5
f 7/7/7 6/6/6 8/8/8
f 6/6/6 5/5/5 10/10/10
f 11/11/11 26/36/26 12/12/12
f 14/14/14 18/69/18 15/15/15
f 16/16/16 30/33/30 17/17/17
f 2/2/2 19/21/19 16/16/16
f 18/19/18 1/1/1 3/3/3
f 19/21/19 12/12/12 20/22/20
f 9/9/9 8/8/8 22/24/22
f 24/26/24 32/35/32 23/25/23
f 8/8/8 10/10/10 25/28/25
f 11/27/11 23/25/23 22/24/22
f 2/2/2 50/63/50 27/30/27
f 17/17/17 30/33/30 28/31/28
f 3/3/3 16/16/16 4/18/4
f 9/9/9 55/72/55 14/14/14
f 16/16/16 19/21/19 21/23/21
f 27/30/27 24/62/24 11/11/11
f 26/29/26 22/24/22 25/28/25
f 13/13/13 12/12/12 19/21/19
f 32/35/32 55/72/55 9/9/9
f 15/15/15 4/4/4 6/6/6
f 26/36/26 31/43/31 20/22/20
f 33/37/33 46/54/46 34/38/34
f 20/22/20 38/44/38 36/40/36
f 10/10/10 39/45/39 33/37/33
f 5/5/5 17/87/17 29/41/29
f 30/33/30 21/23/21 36/40/36
f 31/43/31 35/56/35 38/44/38
f 25/28/25 33/37/33 35/39/35
f 10/10/10 5/5/5 37/42/37
f 42/48/42 34/88/34 46/89/46
f 46/54/46 43/50/43 40/49/40
f 40/46/40 44/90/44 41/47/41
f 41/51/41 45/53/45 42/57/42
f 42/48/42 46/89/46 40/46/40
f 39/45/39 37/42/37 40/49/40
f 29/32/29 28/31/28 41/51/41
f 38/44/38 42/57/42 45/53/45
f 39/45/39 43/50/43 46/54/46
f 37/42/37 29/41/29 44/55/44
f 28/31/28 36/40/36 45/53/45
f 35/56/35 34/91/34 42/57/42
f 56/92/56 47/58/47 49/60/49
f 47/58/47 51/93/51 48/59/48
f 51/64/51 52/65/52 48/67/48
f 48/59/48 53/94/69 49/60/49
f 49/71/49 54/70/54 56/73/56
f 27/30/27 51/64/51 47/61/47
f 50/63/50 52/65/52 51/64/51
f 1/1/1 48/67/48 52/65/52
f 1/1/1 18/19/18 53/66/53
f 14/14/14 49/71/49 53/68/53
f 14/14/14 55/72/55 54/70/54
f 55/72/55 32/35/32 56/73/56
f 24/26/24 47/95/47 56/73/56
f 49/74/57 67/96/70 57/75/58
f 57/75/58 67/96/70 58/77/60
f 59/78/61 58/77/60 60/79/62
f 48/81/48 53/97/69 62/82/64
f 62/82/64 68/98/71 64/84/66
f 64/84/66 68/98/71 65/85/67
f 69/99/72 70/100/72 71/101/73
f 72/102/74 73/103/74 74/104/74
f 75/105/72 76/106/72 77/107/72
f 76/106/72 78/108/72 79/109/72
f 77/107/72 76/106/72 80/110/72
f 78/108/72 81/111/75 82/112/72
f 82/112/72 83/113/72 79/109/72
f 79/109/72 80/110/72 76/106/72
f 77/107/72 84/114/72 75/105/72
f 84/114/72 71/101/73 85/115/72
f 86/116/72 84/114/72 85/115/72
f 71/101/73 87/117/76 88/118/72
f 87/117/76 89/119/77 88/118/72
f 71/101/73 88/118/72 69/99/72
f 89/119/77 90/120/72 88/118/72
f 90/120/72 91/121/72 88/118/72
f 91/121/72 92/122/72 88/118/72
f 92/122/72 93/123/72 88/118/72
f 93/123/72 94/124/72 95/125/72
f 95/125/72 96/126/72 93/123/72
f 96/126/72 97/127/72 88/118/72
f 93/123/72 96/126/72 88/118/72
f 97/127/72 98/128/72 99/129/72
f 99/129/72 100/130/72 101/131/72
f 101/131/72 102/132/72 103/133/72
f 101/131/72 103/133/72 88/118/72
f 97/127/72 99/129/72 88/118/72
f 99/129/72 101/131/72 88/118/72
f 84/114/72 86/116/72 75/105/72
f 82/112/72 79/109/72 78/108/72
f 70/100/72 85/115/72 71/101/73
f 69/99/72 104/134/72 70/100/72
f 104/134/72 105/135/72 106/136/72
f 106/136/72 105/135/72 107/137/72
f 106/136/72 70/100/72 104/134/72
f 108/138/78 109/139/74 110/140/74
f 109/139/74 111/141/74 110/140/74
f 111/141/74 112/142/74 113/143/74
f 113/143/74 110/140/74 111/141/74
f 114/144/74 115/145/74 116/146/74
f 115/145/74 113/143/74 117/147/74
f 117/147/74 113/143/74 112/142/74
f 118/148/74 119/149/74 120/150/74
f 119/149/74 121/151/74 122/152/74
f 118/148/74 120/150/74 123/153/74
f 124/154/74 118/148/74 123/153/74
f 123/153/74 120/150/74 125/155/74
f 121/151/74 114/144/74 116/146/74
f 119/149/74 126/156/74 120/150/74
f 116/146/74 122/152/74 121/151/74
f 122/152/74 126/156/74 119/149/74
f 127/157/74 117/147/74 73/103/74
f 117/147/74 116/146/74 115/145/74
f 73/103/74 117/147/74 112/142/74
f 128/158/74 129/159/74 73/103/74
f 129/159/74 127/157/74 73/103/74
f 130/160/74 131/161/74 73/103/74
f 131/161/74 128/158/74 73/103/74
f 132/162/74 72/102/74 133/163/74
f 72/102/74 130/160/74 73/103/74
f 74/104/74 133/163/74 72/102/74
f 134/164/74 135/165/74 136/166/74
f 135/165/74 74/104/74 73/103/74
f 137/167/74 136/166/74 138/168/74
f 73/103/74 136/166/74 135/165/74
f 139/169/79 138/168/74 140/170/80
f 73/103/74 138/168/74 136/166/74
f 73/103/74 140/170/80 138/168/74
