# Blender v2.92.0 OBJ File: ''
# www.blender.org
mtllib butterfly_1.mtl
o Butterfly
v -4.067396 2.451785 -0.024311
v -4.063742 2.224776 -0.187986
v -4.079000 2.251168 -0.213687
v -4.115839 2.198532 -0.263281
v -4.144252 2.068130 -0.389566
v -4.139689 2.191454 -0.256389
v -4.152678 2.251168 -0.213687
v -4.149569 2.174367 -0.239749
v -4.167939 2.224776 -0.187986
v -4.156021 2.047775 -0.369744
v -4.115839 2.187450 -0.151638
v -4.091990 2.157280 -0.223110
v -4.079000 2.198383 -0.162284
v -4.164284 2.451785 -0.024311
v -4.115839 2.262100 -0.224334
v -4.091990 2.191454 -0.256389
v -4.115839 2.076561 -0.397776
v -4.115839 2.466161 -0.038311
v -4.082111 2.174367 -0.239749
v -4.087428 2.027420 -0.349922
v -4.075660 2.047775 -0.369744
v -4.139689 2.157280 -0.223110
v -4.152678 2.198383 -0.162284
v -4.115839 2.367996 0.057284
v -4.144252 2.027420 -0.349922
v -4.115839 2.150203 -0.216218
v -4.067396 2.382373 0.043284
v -4.104635 2.011849 -0.425851
v -4.118040 2.015826 -0.429725
v -4.087428 2.068130 -0.389566
v -4.115839 2.018989 -0.341711
v -4.164284 2.382373 0.043284
v -4.131444 1.992641 -0.407147
v -4.122118 1.956593 -0.445194
v -4.118040 1.988663 -0.403272
v -4.099082 2.002245 -0.416498
v -4.131444 2.011849 -0.425851
v -4.104635 1.992641 -0.407147
v -4.136998 2.002245 -0.416498
v -4.131089 1.972108 -0.460302
v -4.113148 1.972108 -0.460302
v -4.113148 1.959255 -0.447786
v -4.134804 1.965681 -0.454045
v -4.122118 1.974770 -0.462895
v -4.109432 1.965681 -0.454045
v -4.131089 1.959255 -0.447786
v -4.115839 2.430324 0.059723
v -4.099631 2.469630 0.034677
v -4.132323 2.469141 0.034364
v -4.047330 2.417078 0.009487
v -4.097768 2.435688 0.054501
v -4.090281 2.448636 0.041892
v -4.115839 2.466946 0.024061
v -4.141397 2.448636 0.041892
v -4.184350 2.417078 0.009487
v -4.133913 2.435688 0.054501
v -4.153706 2.573859 0.094446
v -4.209298 2.700252 0.131906
v -4.199327 2.706224 0.130478
v -4.254966 2.851390 0.117459
v -4.243563 2.858259 0.115766
v -4.073437 2.567873 0.089671
v -4.059015 2.562501 0.093426
v -4.006737 2.774055 0.135107
v -3.975583 2.878303 0.128000
v -3.960853 2.872815 0.131836
v -4.163677 2.567852 0.095928
v -4.019880 2.777236 0.134355
v -4.773929 2.579081 -0.368755
v -4.982466 2.754480 -0.361215
v -4.557542 2.880122 0.119449
v -3.811720 1.977385 -0.693699
v -3.497489 2.559557 -0.355917
v -3.515874 2.089835 -0.823052
v -5.101786 3.048380 -0.158156
v -5.193971 3.184095 -0.095077
v -5.015789 3.243157 0.113025
v -5.217525 3.247559 -0.049401
v -5.118817 3.290813 0.076703
v -5.060170 3.268268 0.102084
v -5.215810 3.274377 -0.020440
v -5.200308 3.290263 0.008700
v -5.165781 3.302015 0.049341
v -4.715806 3.021996 0.134167
v -5.041681 2.905821 -0.254806
v -5.057193 2.965958 -0.205890
v -4.367606 2.680814 0.071790
v -4.734191 2.559557 -0.355917
v -4.233566 2.504452 0.001784
v -4.152243 2.349981 -0.089540
v -4.148932 2.227779 -0.212287
v -4.176235 2.134235 -0.330939
v -4.419960 1.977385 -0.693699
v -4.494802 1.952492 -0.781196
v -4.608654 2.009259 -0.817122
v -4.715806 2.089835 -0.823052
v -4.811959 2.182513 -0.807455
v -4.879682 2.266772 -0.776973
v -4.911870 2.349530 -0.718626
v -4.917962 2.473973 -0.595881
v -4.875772 2.528420 -0.505057
v -4.832814 2.557289 -0.439861
v -4.767361 2.564452 -0.378341
v -4.851943 2.607522 -0.404109
v -4.893692 2.627460 -0.418183
v -4.948112 2.687952 -0.401100
v -4.926150 2.654470 -0.417307
v -3.305531 2.654470 -0.417306
v -3.337988 2.627460 -0.418183
v -3.283568 2.687952 -0.401100
v -3.379736 2.607522 -0.404108
v -3.457751 2.579081 -0.368755
v -3.249214 2.754480 -0.361215
v -3.174487 2.965958 -0.205890
v -3.190000 2.905821 -0.254806
v -3.515874 3.021996 0.134167
v -3.674139 2.880122 0.119449
v -3.014154 3.247560 -0.049401
v -3.037710 3.184096 -0.095076
v -3.112864 3.290814 0.076704
v -3.129894 3.048380 -0.158155
v -3.215891 3.243157 0.113025
v -3.031373 3.290264 0.008701
v -3.015871 3.274378 -0.020440
v -3.065900 3.302015 0.049341
v -3.171510 3.268268 0.102084
v -3.864074 2.680727 0.071875
v -4.079438 2.349981 -0.089540
v -3.998115 2.504452 0.001784
v -4.055445 2.134235 -0.330939
v -4.082747 2.227779 -0.212287
v -3.736878 1.952493 -0.781195
v -3.623025 2.009259 -0.817122
v -3.351998 2.266772 -0.776973
v -3.419721 2.182513 -0.807454
v -3.319810 2.349531 -0.718626
v -3.313718 2.473973 -0.595880
v -3.355908 2.528420 -0.505057
v -3.398866 2.557289 -0.439861
v -3.464319 2.564452 -0.378341
vt 0.837654 0.531119
vt 0.817092 0.340223
vt 0.838671 0.339708
vt 0.884241 0.277717
vt 0.899359 0.128103
vt 0.900154 0.279541
vt 0.895113 0.340815
vt 0.916484 0.279793
vt 0.916494 0.341987
vt 0.915982 0.129024
vt 0.773564 0.333719
vt 0.801855 0.277088
vt 0.795649 0.338281
vt 0.892410 0.530952
vt 0.873049 0.337090
vt 0.834554 0.277540
vt 0.852985 0.123299
vt 0.850188 0.275658
vt 0.865574 0.544795
vt 0.860475 0.336653
vt 0.818260 0.278005
vt 0.802429 0.127296
vt 0.818954 0.128745
vt 0.932759 0.278687
vt 0.937998 0.340774
vt 0.968504 0.543596
vt 0.959325 0.336913
vt 0.932639 0.128155
vt 0.948623 0.276957
vt 0.789615 0.529119
vt 0.828511 0.070624
vt 0.837096 0.067307
vt 0.835406 0.127369
vt 0.950586 0.124743
vt 0.940118 0.530115
vt 0.785954 0.274763
vt 0.925353 0.070697
vt 0.927533 0.023569
vt 0.934399 0.068431
vt 0.819120 0.071622
vt 0.897560 0.068432
vt 0.906606 0.070695
vt 0.784842 0.122830
vt 0.809730 0.070493
vt 0.915980 0.071591
vt 0.958482 0.894173
vt 0.958482 0.907019
vt 0.949380 0.907019
vt 0.910279 0.024312
vt 0.915980 0.027269
vt 0.824438 0.025864
vt 0.830052 0.023835
vt 0.819275 0.028599
vt 0.921680 0.024312
vt 0.904426 0.023569
vt 0.801166 0.067047
vt 0.814132 0.025788
vt 0.938963 0.690746
vt 0.961225 0.678249
vt 0.961084 0.703735
vt 0.789970 0.587408
vt 0.762071 0.541255
vt 0.813323 0.526556
vt 0.801223 0.577853
vt 0.813079 0.571968
vt 0.835835 0.587408
vt 0.824378 0.579196
vt 0.893359 0.586584
vt 0.865687 0.543459
vt 0.916189 0.572325
vt 0.904799 0.579019
vt 0.916677 0.527038
vt 0.927954 0.578741
vt 0.881365 0.124802
vt 0.947494 0.900596
vt 0.949380 0.894173
vt 0.960367 0.900596
vt 0.808532 0.023676
vt 0.942677 0.703735
vt 0.942821 0.677842
vt 0.965273 0.691037
vt 0.939724 0.587408
vt 0.895808 0.627926
vt 0.879713 0.715626
vt 0.847654 0.620374
vt 0.919428 0.817601
vt 0.885770 0.819127
vt 0.886206 0.930828
vt 0.847654 0.932603
vt 0.913433 0.714087
vt 0.799539 0.613365
vt 0.797049 0.696128
vt 0.750754 0.696395
vt 0.807662 0.854641
vt 0.824354 0.932603
vt 0.777074 0.932288
vt 0.847048 0.605571
vt 0.847048 0.853658
vt 0.541540 0.468377
vt 0.689783 0.583096
vt 0.223961 0.737469
vt 0.708993 0.804247
vt 0.754801 0.901707
vt 0.557309 0.971563
vt 0.756748 0.949739
vt 0.643769 0.996903
vt 0.593000 0.986160
vt 0.745947 0.971504
vt 0.725121 0.986216
vt 0.686748 1.000000
vt 0.333498 0.831570
vt 0.697455 0.697256
vt 0.692519 0.743626
vt 0.102380 0.601131
vt 0.508578 0.457687
vt 0.028632 0.476343
vt 0.000000 0.362449
vt 0.038131 0.264675
vt 0.097036 0.186080
vt 0.392960 0.029410
vt 0.475943 0.000000
vt 0.570097 0.031299
vt 0.649505 0.082572
vt 0.713856 0.144952
vt 0.752745 0.204141
vt 0.756748 0.266592
vt 0.720629 0.365817
vt 0.660150 0.414868
vt 0.607577 0.443466
vt 0.539957 0.457449
vt 0.609601 0.481423
vt 0.644423 0.492196
vt 0.678119 0.533960
vt 0.667594 0.509818
vt 0.392960 0.029410
vt 0.508578 0.457687
vt 0.649505 0.082572
vt 0.667594 0.509818
vt 0.644423 0.492196
vt 0.678119 0.533960
vt 0.609601 0.481423
vt 0.541540 0.468377
vt 0.689783 0.583096
vt 0.692519 0.743626
vt 0.697455 0.697256
vt 0.333498 0.831570
vt 0.223961 0.737469
vt 0.756748 0.949739
vt 0.754801 0.901707
vt 0.643769 0.996903
vt 0.708993 0.804247
vt 0.557309 0.971563
vt 0.725121 0.986216
vt 0.745947 0.971504
vt 0.686748 1.000000
vt 0.593000 0.986160
vt 0.102380 0.601131
vt 0.000000 0.362449
vt 0.028632 0.476343
vt 0.097036 0.186080
vt 0.038131 0.264675
vt 0.475943 0.000000
vt 0.570097 0.031299
vt 0.752745 0.204141
vt 0.713856 0.144952
vt 0.756748 0.266592
vt 0.720629 0.365817
vt 0.660150 0.414868
vt 0.607577 0.443466
vt 0.539957 0.457449
vn 0.6733 0.6959 -0.2499
vn 0.9887 -0.1048 -0.1076
vn 0.6991 0.3960 -0.5953
vn 0.0000 0.6350 -0.7725
vn -0.7000 0.4178 -0.5792
vn -0.7028 0.4265 -0.5694
vn -0.6991 0.3961 -0.5953
vn -0.9939 -0.0770 -0.0791
vn -0.9887 -0.1048 -0.1076
vn -0.9929 -0.0832 -0.0854
vn 0.0000 -0.8131 0.5821
vn 0.7028 -0.5805 0.4112
vn 0.6991 -0.6056 0.3801
vn -0.6731 0.6961 -0.2496
vn 0.0000 0.6035 -0.7974
vn 0.7028 0.4265 -0.5694
vn 0.0033 0.6168 -0.7871
vn 0.0000 0.8998 -0.4363
vn 0.9939 -0.0770 -0.0791
vn 0.7014 -0.6002 0.3844
vn 0.9891 -0.1028 -0.1056
vn -0.7028 -0.5805 0.4113
vn -0.6991 -0.6057 0.3801
vn 0.0000 -0.4600 0.8879
vn -0.7000 -0.5901 0.4022
vn 0.0000 -0.7890 0.6143
vn 0.6711 -0.2609 0.6940
vn 0.6852 0.3091 -0.6595
vn 0.0041 0.5447 -0.8386
vn 0.7014 0.4002 -0.5898
vn 0.0033 -0.8032 0.5957
vn -0.6711 -0.2609 0.6940
vn -0.6929 -0.6273 0.3554
vn -0.0145 -0.9994 0.0326
vn 0.0041 -0.8528 0.5223
vn 0.9625 -0.1893 -0.1944
vn -0.6929 0.3720 -0.6177
vn 0.6852 -0.6674 0.2915
vn -0.9860 -0.1165 -0.1196
vn -0.5422 -0.0784 -0.8366
vn 0.5021 -0.1140 -0.8573
vn 0.5021 -0.8539 -0.1367
vn -0.7633 -0.4507 -0.4628
vn -0.0145 0.0591 -0.9981
vn 0.7122 -0.4898 -0.5029
vn -0.5422 -0.8342 -0.1005
vn -0.0010 0.1945 0.9809
vn 0.4874 0.8709 -0.0623
vn -0.4771 0.8781 -0.0364
vn 0.9490 0.2199 0.2258
vn 0.3897 0.2795 0.8775
vn 0.6675 0.4491 0.5940
vn -0.0079 0.9307 -0.3657
vn -0.6614 0.4545 0.5967
vn -0.9490 0.2199 0.2258
vn -0.3868 0.2844 0.8772
vn -0.0079 0.9307 -0.3656
vn -0.4691 0.8823 -0.0389
vn -0.3089 0.2814 -0.9085
vn -0.0078 0.9307 -0.3657
vn -0.1715 0.0508 -0.9839
vn -0.1480 0.0104 -0.9889
vn -0.0758 -0.1179 -0.9901
vn -0.0760 -0.1179 -0.9901
vn -0.3166 0.3039 -0.8985
vn 0.4874 0.8710 -0.0623
vn 0.3325 0.2537 -0.9083
vn 0.3289 0.2455 -0.9119
vn 0.0794 0.0404 -0.9960
vn 0.1927 -0.1239 -0.9734
vn 0.2052 -0.1275 -0.9704
vn -0.0078 0.9307 -0.3656
vn 0.0717 0.0611 -0.9956
vn 0.5000 0.6204 -0.6042
vn 0.4999 0.6205 -0.6042
vn 0.5000 0.6205 -0.6042
vn 0.4999 0.6204 -0.6043
vn 0.4999 0.6204 -0.6044
vn 0.5001 0.6203 -0.6043
vn -0.5000 0.6204 -0.6042
vn -0.5000 0.6205 -0.6042
usemtl Butterfly
s 1
f 1/1/1 2/2/2 3/3/3
f 4/4/4 5/5/5 6/6/6
f 7/7/7 8/8/8 9/9/9
f 6/6/6 10/10/10 8/8/8
f 11/11/11 12/12/12 13/13/13
f 14/14/14 15/15/15 7/7/7
f 16/16/16 17/17/17 4/18/4
f 2/2/2 16/16/16 3/3/3
f 18/19/18 3/3/3 15/20/15
f 19/21/19 20/22/20 21/23/21
f 9/9/9 22/24/22 23/25/23
f 24/26/24 23/25/23 11/27/11
f 8/8/8 25/28/25 22/24/22
f 11/27/11 22/24/22 26/29/26
f 2/2/2 27/30/27 13/13/13
f 17/17/17 28/31/28 29/32/29
f 3/3/3 4/18/4 15/20/15
f 9/9/9 14/14/14 7/7/7
f 16/16/16 21/23/21 30/33/30
f 27/30/27 11/11/11 13/13/13
f 26/29/26 25/28/25 31/34/31
f 13/13/13 19/21/19 2/2/2
f 32/35/32 9/9/9 23/25/23
f 15/15/15 6/6/6 7/7/7
f 26/36/26 20/22/20 12/12/12
f 33/37/33 34/38/34 35/39/35
f 20/22/20 36/40/36 21/23/21
f 10/10/10 33/37/33 25/28/25
f 5/5/5 29/41/29 37/42/37
f 30/33/30 36/40/36 28/31/28
f 31/43/31 38/44/38 20/22/20
f 25/28/25 35/39/35 31/34/31
f 10/10/10 37/42/37 39/45/39
f 40/46/40 41/47/41 42/48/42
f 39/45/39 40/49/40 43/50/43
f 29/32/29 41/51/41 44/52/44
f 38/44/38 45/53/45 36/40/36
f 39/45/39 46/54/46 33/37/33
f 37/42/37 44/55/44 40/49/40
f 28/31/28 45/53/45 41/51/41
f 35/56/35 42/57/42 38/44/38
f 47/58/47 48/59/48 49/60/49
f 27/30/27 47/61/47 24/62/24
f 50/63/50 51/64/51 27/30/27
f 1/1/1 52/65/52 50/63/50
f 1/1/1 53/66/53 48/67/48
f 14/14/14 53/68/53 18/69/18
f 14/14/14 54/70/54 49/71/49
f 55/72/55 56/73/56 54/70/54
f 24/26/24 56/73/56 32/35/32
f 1/1/1 50/63/50 2/2/2
f 4/4/4 17/74/17 5/5/5
f 7/7/7 6/6/6 8/8/8
f 6/6/6 5/5/5 10/10/10
f 11/11/11 26/36/26 12/12/12
f 14/14/14 18/69/18 15/15/15
f 16/16/16 30/33/30 17/17/17
f 2/2/2 19/21/19 16/16/16
f 18/19/18 1/1/1 3/3/3
f 19/21/19 12/12/12 20/22/20
f 9/9/9 8/8/8 22/24/22
f 24/26/24 32/35/32 23/25/23
f 8/8/8 10/10/10 25/28/25
f 11/27/11 23/25/23 22/24/22
f 2/2/2 50/63/50 27/30/27
f 17/17/17 30/33/30 28/31/28
f 3/3/3 16/16/16 4/18/4
f 9/9/9 55/72/55 14/14/14
f 16/16/16 19/21/19 21/23/21
f 27/30/27 24/62/24 11/11/11
f 26/29/26 22/24/22 25/28/25
f 13/13/13 12/12/12 19/21/19
f 32/35/32 55/72/55 9/9/9
f 15/15/15 4/4/4 6/6/6
f 26/36/26 31/43/31 20/22/20
f 33/37/33 46/54/46 34/38/34
f 20/22/20 38/44/38 36/40/36
f 10/10/10 39/45/39 33/37/33
f 5/5/5 17/74/17 29/41/29
f 30/33/30 21/23/21 36/40/36
f 31/43/31 35/56/35 38/44/38
f 25/28/25 33/37/33 35/39/35
f 10/10/10 5/5/5 37/42/37
f 42/48/42 34/75/34 46/76/46
f 46/54/46 43/50/43 40/49/40
f 40/46/40 44/77/44 41/47/41
f 41/51/41 45/53/45 42/57/42
f 42/48/42 46/76/46 40/46/40
f 39/45/39 37/42/37 40/49/40
f 29/32/29 28/31/28 41/51/41
f 38/44/38 42/57/42 45/53/45
f 39/45/39 43/50/43 46/54/46
f 37/42/37 29/41/29 44/55/44
f 28/31/28 36/40/36 45/53/45
f 35/56/35 34/78/34 42/57/42
f 56/79/56 47/58/47 49/60/49
f 47/58/47 51/80/51 48/59/48
f 51/64/51 52/65/52 48/67/48
f 48/59/48 53/81/57 49/60/49
f 49/71/49 54/70/54 56/73/56
f 27/30/27 51/64/51 47/61/47
f 50/63/50 52/65/52 51/64/51
f 1/1/1 48/67/48 52/65/52
f 1/1/1 18/19/18 53/66/53
f 14/14/14 49/71/49 53/68/53
f 14/14/14 55/72/55 54/70/54
f 55/72/55 32/35/32 56/73/56
f 24/26/24 47/82/47 56/73/56
s 2
f 49/83/58 57/84/59 53/85/60
f 57/84/59 58/86/61 59/87/62
f 59/87/62 60/88/63 61/89/64
f 49/83/58 67/90/65 57/84/59
f 57/84/59 67/90/65 58/86/61
f 59/87/62 58/86/61 60/88/63
s 3
f 48/91/66 62/92/67 63/93/68
f 62/92/67 64/94/69 63/93/68
f 64/94/69 65/95/70 66/96/71
f 48/91/66 53/97/72 62/92/67
f 62/92/67 68/98/73 64/94/69
f 64/94/69 68/98/73 65/95/70
s 4
f 69/99/74 70/100/74 71/101/75
f 75/102/74 76/103/74 77/104/74
f 76/103/74 78/105/74 79/106/76
f 77/104/74 76/103/74 80/107/74
f 78/105/74 81/108/77 82/109/76
f 82/109/76 83/110/76 79/106/76
f 79/106/76 80/107/74 76/103/74
f 77/104/74 84/111/74 75/102/74
f 84/111/74 71/101/75 85/112/74
f 86/113/74 84/111/74 85/112/74
f 71/101/75 87/114/78 88/115/74
f 87/114/78 89/116/79 88/115/74
f 71/101/75 88/115/74 69/99/74
f 89/116/79 90/117/74 88/115/74
f 90/117/74 91/118/74 88/115/74
f 91/118/74 92/119/74 88/115/74
f 92/119/74 93/120/74 88/115/74
f 93/120/74 94/121/74 95/122/74
f 95/122/74 96/123/74 93/120/74
f 96/123/74 97/124/74 88/115/74
f 93/120/74 96/123/74 88/115/74
f 97/124/74 98/125/74 99/126/74
f 99/126/74 100/127/74 101/128/74
f 101/128/74 102/129/76 103/130/74
f 101/128/74 103/130/74 88/115/74
f 97/124/74 99/126/74 88/115/74
f 99/126/74 101/128/74 88/115/74
f 84/111/74 86/113/74 75/102/74
f 82/109/76 79/106/76 78/105/74
f 70/100/74 85/112/74 71/101/75
f 69/99/74 104/131/74 70/100/74
f 104/131/74 105/132/74 106/133/74
f 106/133/74 105/132/74 107/134/74
f 106/133/74 70/100/74 104/131/74
s 5
f 72/135/80 73/136/80 74/137/80
f 108/138/80 109/139/80 110/140/80
f 109/139/80 111/141/80 110/140/80
f 111/141/80 112/142/80 113/143/80
f 113/143/80 110/140/80 111/141/80
f 114/144/80 115/145/80 116/146/80
f 115/145/80 113/143/80 117/147/80
f 117/147/80 113/143/80 112/142/80
f 118/148/80 119/149/80 120/150/80
f 119/149/80 121/151/80 122/152/80
f 118/148/80 120/150/80 123/153/80
f 124/154/81 118/148/80 123/153/80
f 123/153/80 120/150/80 125/155/80
f 121/151/80 114/144/80 116/146/80
f 119/149/80 126/156/80 120/150/80
f 116/146/80 122/152/80 121/151/80
f 122/152/80 126/156/80 119/149/80
f 127/157/80 117/147/80 73/136/80
f 117/147/80 116/146/80 115/145/80
f 73/136/80 117/147/80 112/142/80
f 128/158/80 129/159/80 73/136/80
f 129/159/80 127/157/80 73/136/80
f 130/160/80 131/161/80 73/136/80
f 131/161/80 128/158/80 73/136/80
f 132/162/80 72/135/80 133/163/80
f 72/135/80 130/160/80 73/136/80
f 74/137/80 133/163/80 72/135/80
f 134/164/80 135/165/80 136/166/80
f 135/165/80 74/137/80 73/136/80
f 137/167/80 136/166/80 138/168/80
f 73/136/80 136/166/80 135/165/80
f 139/169/81 138/168/80 140/170/80
f 73/136/80 138/168/80 136/166/80
f 73/136/80 140/170/80 138/168/80
